<?xml version="1.0" encoding="UTF-8"?><svg id="Layer_1" xmlns="http://www.w3.org/2000/svg" viewBox="0 0 16 16"><defs><style>.cls-1{fill:none;}.cls-1,.cls-2,.cls-3,.cls-4,.cls-5{stroke-width:0px;}.cls-2{fill:#3083fc;}.cls-3{fill:#2e3192;}.cls-4{fill:#d7e9ff;}.cls-5{fill:#fff;}</style></defs><rect class="cls-4" width="16" height="16"/><path class="cls-1" d="m0,0h16v16H0V0Z"/><path class="cls-3" d="m7.51,11.17h.97v2.79h-.97v-2.79Z"/><path class="cls-3" d="m12.07,13.36l-4.07,2.57-4.07-2.57v-.02h8.15v.02ZM7.51,2.04h.97v2.75h-.97v-2.75Z"/><path class="cls-3" d="m12.07,2.64L8,.07,3.93,2.64v.03h8.15v-.03Z"/><circle class="cls-2" cx="8" cy="8" r="4.24"/><path class="cls-5" d="m7.69,5.58c0-.17.15-.31.32-.3.03,0,.05,0,.07.01.13.04.23.16.22.3v2.27l1.41,1.12c.13.1.16.29.06.43-.1.13-.29.16-.43.06,0,0,0,0-.01-.01l-1.53-1.21c-.07-.06-.11-.14-.12-.24v-2.42h.01Z"/></svg>